# xmcd CD database file
#
# Track frame offsets:
#	150
#	21537
#	39177
#
# Disc length: 839 seconds
#
# Revision: 0
# Processed by: cddbd v1.5PL3 Copyright (c) Steve Scherf et al.
# Submitted via: CDex 1.50beta10
#
DISCID=1c034503
DTITLE=THE JERRY LEE PHANTOM - This boring rock
DYEAR=2001
DGENRE=Rock
TTITLE0=This boring rock
TTITLE1=Sad song
TTITLE2=This boring rock -Russell Simins Remix-
EXTD=YEAR: 2001
EXTT0=
EXTT1=
EXTT2=
PLAYORDER=
